<svg xmlns="http://www.w3.org/2000/svg" width="2160" height="1240" viewBox="0 0 2160 1240">
  <rect width="2160" height="1240" fill="#111417"/>

    <g transform="translate(70 80) scale(0.898438)">
      <rect x="24" y="24" width="976" height="976" rx="232" fill="#000000" stroke="#103139" stroke-width="2"/>

    <g id="preview-a-monogram-a" aria-label="MS">
      <path d="M86 0V700H211L423 38H435L647 700H772V0H710V662H698L486 0H372L160 662H148V0Z" fill="#00E5FF"
            transform="translate(116 718) scale(0.6 -0.6)"/>
      <path d="M315 -14Q240 -14 181.0 12.5Q122 39 88.0 93.5Q54 148 54 232V251H118V232Q118 135 173.5 88.5Q229 42 315 42Q402 42 449.0 82.5Q496 123 496 186Q496 228 475.5 253.5Q455 279 418.5 294.5Q382 310 334 322L270 338Q213 353 168.0 375.5Q123 398 97.0 434.5Q71 471 71 528Q71 585 100.5 627.0Q130 669 182.0 691.5Q234 714 303 714Q372 714 427.5 690.0Q483 666 515.5 619.5Q548 573 548 503V456H484V503Q484 558 460.0 592.0Q436 626 395.0 642.0Q354 658 303 658Q230 658 182.5 624.5Q135 591 135 528Q135 486 154.5 461.0Q174 436 209.5 421.0Q245 406 293 394L357 378Q412 365 458.0 343.5Q504 322 532.0 284.5Q560 247 560 186Q560 125 529.5 80.0Q499 35 444.0 10.5Q389 -14 315 -14Z" fill="#00E5FF"
            transform="translate(560 718) scale(0.6 -0.6)"/>
    </g>
    </g>

    <g transform="translate(1170 80) scale(0.898438)">
      <rect x="24" y="24" width="976" height="976" rx="232" fill="#000000" stroke="#103139" stroke-width="2"/>

    <g id="preview-a2-monogram-a2" aria-label="MS">
      <path d="M86 0V700H211L423 38H435L647 700H772V0H710V662H698L486 0H372L160 662H148V0Z" fill="#00E5FF"
            transform="translate(116 718) scale(0.6 -0.6)"/>
      <path d="M315 -14Q240 -14 181.0 12.5Q122 39 88.0 93.5Q54 148 54 232V251H118V232Q118 135 173.5 88.5Q229 42 315 42Q402 42 449.0 82.5Q496 123 496 186Q496 228 475.5 253.5Q455 279 418.5 294.5Q382 310 334 322L270 338Q213 353 168.0 375.5Q123 398 97.0 434.5Q71 471 71 528Q71 585 100.5 627.0Q130 669 182.0 691.5Q234 714 303 714Q372 714 427.5 690.0Q483 666 515.5 619.5Q548 573 548 503V456H484V503Q484 558 460.0 592.0Q436 626 395.0 642.0Q354 658 303 658Q230 658 182.5 624.5Q135 591 135 528Q135 486 154.5 461.0Q174 436 209.5 421.0Q245 406 293 394L357 378Q412 365 458.0 343.5Q504 322 532.0 284.5Q560 247 560 186Q560 125 529.5 80.0Q499 35 444.0 10.5Q389 -14 315 -14Z" fill="#00E5FF" stroke="#00E5FF" stroke-width="8" stroke-linejoin="round" stroke-linecap="round" paint-order="stroke fill"
            transform="translate(560 718) scale(0.6 -0.6)"/>
    </g>
    </g>
  <text x="530" y="1045" text-anchor="middle" font-family="Space Grotesk, sans-serif" font-size="34" fill="#F5F5F7">Original A</text>
  <text x="1630" y="1045" text-anchor="middle" font-family="Space Grotesk, sans-serif" font-size="34" fill="#F5F5F7">A2 · S con corrección óptica</text>

    <g transform="translate(270 1104) scale(0.015625)">
      <rect x="24" y="24" width="976" height="976" rx="232" fill="#000000" stroke="#103139" stroke-width="2"/>

    <g id="preview-a-monogram-a" aria-label="MS">
      <path d="M86 0V700H211L423 38H435L647 700H772V0H710V662H698L486 0H372L160 662H148V0Z" fill="#00E5FF"
            transform="translate(116 718) scale(0.6 -0.6)"/>
      <path d="M315 -14Q240 -14 181.0 12.5Q122 39 88.0 93.5Q54 148 54 232V251H118V232Q118 135 173.5 88.5Q229 42 315 42Q402 42 449.0 82.5Q496 123 496 186Q496 228 475.5 253.5Q455 279 418.5 294.5Q382 310 334 322L270 338Q213 353 168.0 375.5Q123 398 97.0 434.5Q71 471 71 528Q71 585 100.5 627.0Q130 669 182.0 691.5Q234 714 303 714Q372 714 427.5 690.0Q483 666 515.5 619.5Q548 573 548 503V456H484V503Q484 558 460.0 592.0Q436 626 395.0 642.0Q354 658 303 658Q230 658 182.5 624.5Q135 591 135 528Q135 486 154.5 461.0Q174 436 209.5 421.0Q245 406 293 394L357 378Q412 365 458.0 343.5Q504 322 532.0 284.5Q560 247 560 186Q560 125 529.5 80.0Q499 35 444.0 10.5Q389 -14 315 -14Z" fill="#00E5FF"
            transform="translate(560 718) scale(0.6 -0.6)"/>
    </g>
    </g>
    <g transform="translate(370 1096) scale(0.03125)">
      <rect x="24" y="24" width="976" height="976" rx="232" fill="#000000" stroke="#103139" stroke-width="2"/>

    <g id="preview-a-monogram-a" aria-label="MS">
      <path d="M86 0V700H211L423 38H435L647 700H772V0H710V662H698L486 0H372L160 662H148V0Z" fill="#00E5FF"
            transform="translate(116 718) scale(0.6 -0.6)"/>
      <path d="M315 -14Q240 -14 181.0 12.5Q122 39 88.0 93.5Q54 148 54 232V251H118V232Q118 135 173.5 88.5Q229 42 315 42Q402 42 449.0 82.5Q496 123 496 186Q496 228 475.5 253.5Q455 279 418.5 294.5Q382 310 334 322L270 338Q213 353 168.0 375.5Q123 398 97.0 434.5Q71 471 71 528Q71 585 100.5 627.0Q130 669 182.0 691.5Q234 714 303 714Q372 714 427.5 690.0Q483 666 515.5 619.5Q548 573 548 503V456H484V503Q484 558 460.0 592.0Q436 626 395.0 642.0Q354 658 303 658Q230 658 182.5 624.5Q135 591 135 528Q135 486 154.5 461.0Q174 436 209.5 421.0Q245 406 293 394L357 378Q412 365 458.0 343.5Q504 322 532.0 284.5Q560 247 560 186Q560 125 529.5 80.0Q499 35 444.0 10.5Q389 -14 315 -14Z" fill="#00E5FF"
            transform="translate(560 718) scale(0.6 -0.6)"/>
    </g>
    </g>
    <g transform="translate(490 1080) scale(0.0625)">
      <rect x="24" y="24" width="976" height="976" rx="232" fill="#000000" stroke="#103139" stroke-width="2"/>

    <g id="preview-a-monogram-a" aria-label="MS">
      <path d="M86 0V700H211L423 38H435L647 700H772V0H710V662H698L486 0H372L160 662H148V0Z" fill="#00E5FF"
            transform="translate(116 718) scale(0.6 -0.6)"/>
      <path d="M315 -14Q240 -14 181.0 12.5Q122 39 88.0 93.5Q54 148 54 232V251H118V232Q118 135 173.5 88.5Q229 42 315 42Q402 42 449.0 82.5Q496 123 496 186Q496 228 475.5 253.5Q455 279 418.5 294.5Q382 310 334 322L270 338Q213 353 168.0 375.5Q123 398 97.0 434.5Q71 471 71 528Q71 585 100.5 627.0Q130 669 182.0 691.5Q234 714 303 714Q372 714 427.5 690.0Q483 666 515.5 619.5Q548 573 548 503V456H484V503Q484 558 460.0 592.0Q436 626 395.0 642.0Q354 658 303 658Q230 658 182.5 624.5Q135 591 135 528Q135 486 154.5 461.0Q174 436 209.5 421.0Q245 406 293 394L357 378Q412 365 458.0 343.5Q504 322 532.0 284.5Q560 247 560 186Q560 125 529.5 80.0Q499 35 444.0 10.5Q389 -14 315 -14Z" fill="#00E5FF"
            transform="translate(560 718) scale(0.6 -0.6)"/>
    </g>
    </g>

    <g transform="translate(1370 1104) scale(0.015625)">
      <rect x="24" y="24" width="976" height="976" rx="232" fill="#000000" stroke="#103139" stroke-width="2"/>

    <g id="preview-a2-monogram-a2" aria-label="MS">
      <path d="M86 0V700H211L423 38H435L647 700H772V0H710V662H698L486 0H372L160 662H148V0Z" fill="#00E5FF"
            transform="translate(116 718) scale(0.6 -0.6)"/>
      <path d="M315 -14Q240 -14 181.0 12.5Q122 39 88.0 93.5Q54 148 54 232V251H118V232Q118 135 173.5 88.5Q229 42 315 42Q402 42 449.0 82.5Q496 123 496 186Q496 228 475.5 253.5Q455 279 418.5 294.5Q382 310 334 322L270 338Q213 353 168.0 375.5Q123 398 97.0 434.5Q71 471 71 528Q71 585 100.5 627.0Q130 669 182.0 691.5Q234 714 303 714Q372 714 427.5 690.0Q483 666 515.5 619.5Q548 573 548 503V456H484V503Q484 558 460.0 592.0Q436 626 395.0 642.0Q354 658 303 658Q230 658 182.5 624.5Q135 591 135 528Q135 486 154.5 461.0Q174 436 209.5 421.0Q245 406 293 394L357 378Q412 365 458.0 343.5Q504 322 532.0 284.5Q560 247 560 186Q560 125 529.5 80.0Q499 35 444.0 10.5Q389 -14 315 -14Z" fill="#00E5FF" stroke="#00E5FF" stroke-width="8" stroke-linejoin="round" stroke-linecap="round" paint-order="stroke fill"
            transform="translate(560 718) scale(0.6 -0.6)"/>
    </g>
    </g>
    <g transform="translate(1470 1096) scale(0.03125)">
      <rect x="24" y="24" width="976" height="976" rx="232" fill="#000000" stroke="#103139" stroke-width="2"/>

    <g id="preview-a2-monogram-a2" aria-label="MS">
      <path d="M86 0V700H211L423 38H435L647 700H772V0H710V662H698L486 0H372L160 662H148V0Z" fill="#00E5FF"
            transform="translate(116 718) scale(0.6 -0.6)"/>
      <path d="M315 -14Q240 -14 181.0 12.5Q122 39 88.0 93.5Q54 148 54 232V251H118V232Q118 135 173.5 88.5Q229 42 315 42Q402 42 449.0 82.5Q496 123 496 186Q496 228 475.5 253.5Q455 279 418.5 294.5Q382 310 334 322L270 338Q213 353 168.0 375.5Q123 398 97.0 434.5Q71 471 71 528Q71 585 100.5 627.0Q130 669 182.0 691.5Q234 714 303 714Q372 714 427.5 690.0Q483 666 515.5 619.5Q548 573 548 503V456H484V503Q484 558 460.0 592.0Q436 626 395.0 642.0Q354 658 303 658Q230 658 182.5 624.5Q135 591 135 528Q135 486 154.5 461.0Q174 436 209.5 421.0Q245 406 293 394L357 378Q412 365 458.0 343.5Q504 322 532.0 284.5Q560 247 560 186Q560 125 529.5 80.0Q499 35 444.0 10.5Q389 -14 315 -14Z" fill="#00E5FF" stroke="#00E5FF" stroke-width="8" stroke-linejoin="round" stroke-linecap="round" paint-order="stroke fill"
            transform="translate(560 718) scale(0.6 -0.6)"/>
    </g>
    </g>
    <g transform="translate(1590 1080) scale(0.0625)">
      <rect x="24" y="24" width="976" height="976" rx="232" fill="#000000" stroke="#103139" stroke-width="2"/>

    <g id="preview-a2-monogram-a2" aria-label="MS">
      <path d="M86 0V700H211L423 38H435L647 700H772V0H710V662H698L486 0H372L160 662H148V0Z" fill="#00E5FF"
            transform="translate(116 718) scale(0.6 -0.6)"/>
      <path d="M315 -14Q240 -14 181.0 12.5Q122 39 88.0 93.5Q54 148 54 232V251H118V232Q118 135 173.5 88.5Q229 42 315 42Q402 42 449.0 82.5Q496 123 496 186Q496 228 475.5 253.5Q455 279 418.5 294.5Q382 310 334 322L270 338Q213 353 168.0 375.5Q123 398 97.0 434.5Q71 471 71 528Q71 585 100.5 627.0Q130 669 182.0 691.5Q234 714 303 714Q372 714 427.5 690.0Q483 666 515.5 619.5Q548 573 548 503V456H484V503Q484 558 460.0 592.0Q436 626 395.0 642.0Q354 658 303 658Q230 658 182.5 624.5Q135 591 135 528Q135 486 154.5 461.0Q174 436 209.5 421.0Q245 406 293 394L357 378Q412 365 458.0 343.5Q504 322 532.0 284.5Q560 247 560 186Q560 125 529.5 80.0Q499 35 444.0 10.5Q389 -14 315 -14Z" fill="#00E5FF" stroke="#00E5FF" stroke-width="8" stroke-linejoin="round" stroke-linecap="round" paint-order="stroke fill"
            transform="translate(560 718) scale(0.6 -0.6)"/>
    </g>
    </g>
  <text x="70" y="1194" font-family="Space Grotesk, sans-serif" font-size="24" fill="#8E969B">Único cambio: stroke óptico +8 unidades sobre la S; M, escala, kerning, placa y color permanecen iguales.</text>
</svg>
